<svg xmlns="http://www.w3.org/2000/svg" width="176" height="45" viewBox="0 0 176 45"><defs><style>      .cls-1 {        fill: #ffba25;      }      .cls-1, .cls-2 {        fill-rule: evenodd;      }    </style></defs><path id="_1" data-name="1" class="cls-1" d="M48.148,17.362l-9,27.947H10.012l-9-27.947L3.04,15.874,24.578,0.091,46.627,16.249h0ZM9.024,19.99l6.407,4.695,1.512-4.695H9.024Zm8.388,10.845L13.975,41.507h18Zm0.756-14.646,2.825-8.771L9.024,16.189h9.145Zm25.17,3.8H20.907l-2.27,7.044,18.149,13.3Zm-29.132,8.5-7.4-5.422,4.573,14.192Zm25.926-12.3L25.569,5.516,22.132,16.189h18Z"></path><path id="_2" data-name="2" class="cls-2" d="M174.179,35.224a1.979,1.979,0,0,0-1.14-.336,1.682,1.682,0,0,0-.689.132,1.048,1.048,0,0,0-.462.378,1.061,1.061,0,0,0,.08,1.244,1.479,1.479,0,0,0,.742.441l1.379,0.431a3.03,3.03,0,0,1,1.42.813,1.9,1.9,0,0,1,.478,1.318,2,2,0,0,1-.345,1.156,2.34,2.34,0,0,1-.949.793,3.215,3.215,0,0,1-1.4.288,3.414,3.414,0,0,1-1.378-.278,3.183,3.183,0,0,1-1.081-.761,3.065,3.065,0,0,1-.658-1.113l1.06-.441a2.394,2.394,0,0,0,.838,1.113,2.151,2.151,0,0,0,1.272.389,1.932,1.932,0,0,0,.743-0.131,1.121,1.121,0,0,0,.493-0.373,0.927,0.927,0,0,0,.175-0.556,0.943,0.943,0,0,0-.244-0.683,1.673,1.673,0,0,0-.721-0.4l-1.485-.462a2.757,2.757,0,0,1-1.357-.835,2,2,0,0,1-.466-1.318,2.062,2.062,0,0,1,.328-1.161,2.244,2.244,0,0,1,.907-0.782,2.959,2.959,0,0,1,1.32-.284,3.282,3.282,0,0,1,1.293.247,3.044,3.044,0,0,1,1,.678,2.6,2.6,0,0,1,.609,1l-1.039.452A1.96,1.96,0,0,0,174.179,35.224Zm-2.633-18.973a4.225,4.225,0,0,0-.41-1.946,3,3,0,0,0-1.131-1.232,3.2,3.2,0,0,0-1.682-.434,3.27,3.27,0,0,0-1.7.434,3.045,3.045,0,0,0-1.16,1.246,4.133,4.133,0,0,0-.424,1.932v8.933h-3.166V16.251a4.225,4.225,0,0,0-.41-1.946,3,3,0,0,0-1.131-1.232,3.558,3.558,0,0,0-3.406,0,2.947,2.947,0,0,0-1.145,1.246,4.234,4.234,0,0,0-.41,1.932v8.933H152.18V10.035h3.053v1.878a3.887,3.887,0,0,1,1.357-1.43A5.439,5.439,0,0,1,159.5,9.7a5.692,5.692,0,0,1,3.266.966,4.709,4.709,0,0,1,1.5,1.623,4.92,4.92,0,0,1,1.584-1.693,5.823,5.823,0,0,1,3.209-.9,5.722,5.722,0,0,1,2.869.728,5.494,5.494,0,0,1,2.05,2.016,5.656,5.656,0,0,1,.763,2.94v9.8h-3.194V16.251ZM150.667,33.932h1.251v7.824h-1.251V33.932Zm-1.738-15.413H137.555A4.471,4.471,0,0,0,138,20.283a4.326,4.326,0,0,0,1.64,1.792,4.562,4.562,0,0,0,2.417.644,4.333,4.333,0,0,0,2.361-.616,4.568,4.568,0,0,0,1.541-1.6l2.6,1.26a5.455,5.455,0,0,1-1.4,1.918A6.951,6.951,0,0,1,144.9,25.03a8.158,8.158,0,0,1-2.869.49,7.788,7.788,0,0,1-4.057-1.05,7.4,7.4,0,0,1-2.756-2.856,8.277,8.277,0,0,1-.99-4.046,8.069,8.069,0,0,1,1-4.06,7.551,7.551,0,0,1,2.7-2.786A7.3,7.3,0,0,1,141.777,9.7a7.681,7.681,0,0,1,3.081.588,6.614,6.614,0,0,1,2.29,1.61,7.191,7.191,0,0,1,1.428,2.338,7.911,7.911,0,0,1,.494,2.8q0,0.364-.028.756A4.18,4.18,0,0,1,148.929,18.519Zm-3.52-3.822A3.832,3.832,0,0,0,144,12.989a3.914,3.914,0,0,0-2.219-.63,4.021,4.021,0,0,0-3.789,2.422,4.7,4.7,0,0,0-.36,1.218h8.049A3.6,3.6,0,0,0,145.409,14.7Zm-13.244,27.06-1.672-2.94h-1.541v2.941H127.7V33.932h2.873a3.223,3.223,0,0,1,1.4.288,2.23,2.23,0,0,1,.949.84,2.437,2.437,0,0,1,.345,1.318,2.28,2.28,0,0,1-1.506,2.227l1.824,3.15h-1.421Zm-0.324-4.679a1.524,1.524,0,0,0,0-1.418,1.181,1.181,0,0,0-.493-0.462,1.637,1.637,0,0,0-.752-0.162h-1.644v2.677H130.6a1.592,1.592,0,0,0,.752-0.168A1.209,1.209,0,0,0,131.841,37.078Zm-3.012-14.106a9.181,9.181,0,0,1-3.11,1.9,10.578,10.578,0,0,1-3.675.644,10.47,10.47,0,0,1-4.142-.812,10.33,10.33,0,0,1-3.336-2.254,10.2,10.2,0,0,1-2.219-3.4,11.408,11.408,0,0,1-.792-4.312,11.635,11.635,0,0,1,.777-4.3,10,10,0,0,1,5.5-5.656,10.6,10.6,0,0,1,4.156-.8,10.077,10.077,0,0,1,4,.756,9.363,9.363,0,0,1,2.983,1.974,7.473,7.473,0,0,1,1.753,2.646l-2.969,1.428a5.825,5.825,0,0,0-2.148-2.758,6.145,6.145,0,0,0-3.619-1.05,6.982,6.982,0,0,0-3.7.98,6.664,6.664,0,0,0-2.5,2.716,8.78,8.78,0,0,0-.891,4.06,8.635,8.635,0,0,0,.919,4.074,6.743,6.743,0,0,0,2.53,2.716,7.062,7.062,0,0,0,3.7.966,7.188,7.188,0,0,0,3.208-.714,5.876,5.876,0,0,0,2.333-2.016,5.313,5.313,0,0,0,.876-3.038V16.643h-6.474v-2.8h9.782V15.8a10.119,10.119,0,0,1-.792,4.1A9.135,9.135,0,0,1,128.829,22.972Zm-20.68,15.55a3.161,3.161,0,0,1-1.4.294h-1.623v2.941h-1.251V33.932h2.874a3.25,3.25,0,0,1,1.4.288,2.185,2.185,0,0,1,.949.84,2.461,2.461,0,0,1,.34,1.318,2.386,2.386,0,0,1-.345,1.3A2.262,2.262,0,0,1,108.149,38.522Zm-0.127-2.862a1.218,1.218,0,0,0-.5-0.462,1.616,1.616,0,0,0-.743-0.162h-1.654v2.677h1.654a1.571,1.571,0,0,0,.743-0.168,1.247,1.247,0,0,0,.5-0.467A1.486,1.486,0,0,0,108.022,35.66Zm0.593-17.141H97.241a4.467,4.467,0,0,0,.448,1.764,4.327,4.327,0,0,0,1.64,1.792,4.562,4.562,0,0,0,2.417.644,4.333,4.333,0,0,0,2.361-.616,4.568,4.568,0,0,0,1.541-1.6l2.6,1.26a5.455,5.455,0,0,1-1.4,1.918,6.962,6.962,0,0,1-2.262,1.344,8.158,8.158,0,0,1-2.869.49,7.788,7.788,0,0,1-4.057-1.05A7.4,7.4,0,0,1,94.9,21.614a8.277,8.277,0,0,1-.989-4.046,8.066,8.066,0,0,1,1-4.06,7.551,7.551,0,0,1,2.7-2.786A7.3,7.3,0,0,1,101.462,9.7a7.682,7.682,0,0,1,3.082.588,6.614,6.614,0,0,1,2.29,1.61,7.191,7.191,0,0,1,1.428,2.338,7.911,7.911,0,0,1,.494,2.8q0,0.364-.028.756A4.18,4.18,0,0,1,108.615,18.519ZM105.1,14.7a3.832,3.832,0,0,0-1.413-1.708,3.915,3.915,0,0,0-2.22-.63,4.02,4.02,0,0,0-3.788,2.422A4.7,4.7,0,0,0,97.314,16h8.049A3.6,3.6,0,0,0,105.1,14.7ZM96,34.951a3.871,3.871,0,0,1,.864,1.281,4.127,4.127,0,0,1,.308,1.608,4.059,4.059,0,0,1-.313,1.606A3.934,3.934,0,0,1,94.7,41.578a4.351,4.351,0,0,1-3.2,0,4.03,4.03,0,0,1-1.294-.851,3.922,3.922,0,0,1-.869-1.282,4.054,4.054,0,0,1-.313-1.606,4.1,4.1,0,0,1,.313-1.612A3.873,3.873,0,0,1,91.5,34.106a4.446,4.446,0,0,1,3.207,0A3.958,3.958,0,0,1,96,34.951Zm-2.9-.021a2.829,2.829,0,0,0-1.129.221,2.689,2.689,0,0,0-.9.619,2.821,2.821,0,0,0-.588.925,3.1,3.1,0,0,0-.207,1.145,3.137,3.137,0,0,0,.207,1.15,2.716,2.716,0,0,0,1.49,1.539,2.99,2.99,0,0,0,2.253,0,2.741,2.741,0,0,0,.9-0.615,2.811,2.811,0,0,0,.594-0.924,3.067,3.067,0,0,0,.212-1.15,3.025,3.025,0,0,0-.212-1.145,2.893,2.893,0,0,0-.594-0.925,2.691,2.691,0,0,0-.9-0.619A2.831,2.831,0,0,0,93.1,34.93ZM87.949,16.251a4,4,0,0,0-.438-1.946,3.1,3.1,0,0,0-1.2-1.232,3.728,3.728,0,0,0-3.492,0A3.053,3.053,0,0,0,81.6,14.319a4.011,4.011,0,0,0-.438,1.932v8.933H77.969V3.986h3.195v7.691a4.149,4.149,0,0,1,1.3-1.236A5.522,5.522,0,0,1,85.348,9.7a6.032,6.032,0,0,1,3,.728,5.265,5.265,0,0,1,2.035,2.016,5.829,5.829,0,0,1,.735,2.94v9.8H87.949V16.251ZM81.3,34.221a2.23,2.23,0,0,1,.949.84,2.44,2.44,0,0,1,.345,1.318,2.278,2.278,0,0,1-1.506,2.227l1.824,3.15H81.494l-1.672-2.94H78.281v2.941H77.03V33.932H79.9A3.22,3.22,0,0,1,81.3,34.221Zm-3.022,3.492h1.643a1.593,1.593,0,0,0,.753-0.168,1.212,1.212,0,0,0,.493-0.467,1.524,1.524,0,0,0,0-1.418,1.184,1.184,0,0,0-.493-0.462,1.638,1.638,0,0,0-.753-0.162H78.281v2.677Zm-8-12.529H66.972V7.262h-5.6V4.322H75.792v2.94H70.28V25.184Zm-1.122,9.037a2.189,2.189,0,0,1,.949.84,2.467,2.467,0,0,1,.339,1.318,2.389,2.389,0,0,1-.345,1.3,2.261,2.261,0,0,1-.949.84,3.163,3.163,0,0,1-1.4.294H66.13v2.941H64.879V33.932h2.873A3.256,3.256,0,0,1,69.157,34.221ZM66.13,37.713h1.654a1.569,1.569,0,0,0,.742-0.168,1.25,1.25,0,0,0,.5-0.467,1.485,1.485,0,0,0,0-1.418,1.22,1.22,0,0,0-.5-0.462,1.613,1.613,0,0,0-.742-0.162H66.13v2.677Zm55.1-2.677h-3.955v2.247h3.743v1.1h-3.743v2.268h3.955v1.1h-5.206V33.932h5.206v1.1Zm23.2,0h-2.067v6.721h-1.241V35.036h-2.1v-1.1h5.407v1.1Zm19.626,0H160.1v2.247h3.743v1.1H160.1v2.268h3.955v1.1h-5.206V33.932h5.206v1.1Z"></path></svg>