<svg xmlns="http://www.w3.org/2000/svg" width="202" height="202" viewBox="0 0 202 202">
  <defs>
    <style>
      .cls-1 {
        fill: #0f0f0f;
      }

      .cls-2 {
        fill: #3f3f3f;
      }

      .cls-3 {
        fill: #fff;
        fill-rule: evenodd;
      }
    </style>
  </defs>
  <circle id="_4" data-name="4" class="cls-1" cx="101" cy="101" r="101"/>
  <circle id="_3" data-name="3" class="cls-2" cx="101" cy="101" r="80.469"/>
  <path id="_1" data-name="1" class="cls-3" d="M111.185,97.163L107.3,109.379H94.712L90.823,97.163l0.877-.65,9.3-6.9,9.524,7.063h0Zm-16.9,1.149,2.768,2.052,0.653-2.052H94.285Zm3.623,4.74-1.485,4.665H104.2Zm0.327-6.4,1.22-3.834-5.171,3.834h3.95Zm10.873,1.661h-9.69l-0.98,3.078,7.84,5.814Zm-12.584,3.714-3.2-2.371,1.975,6.2Zm11.2-5.376-6.291-4.665-1.485,4.665h7.776Z"/>
  <path id="_2" data-name="2" class="cls-3" d="M162.878,92.75a2.568,2.568,0,0,1-2.521.454,2.3,2.3,0,0,1-1.01-.8,3.035,3.035,0,0,1-.428-0.914L155.9,94.916l-0.351-1.949,3-3.276-0.051-.279-3.472.626-0.289-1.607,8.3-1.5,0.29,1.606h0l0.3,1.642a3.107,3.107,0,0,1-.059,1.468A2.386,2.386,0,0,1,162.878,92.75Zm-0.592-2.473-0.27-1.5-2.268.409,0.271,1.5a1.316,1.316,0,0,0,.466.861,1.1,1.1,0,0,0,.891.175,1.114,1.114,0,0,0,.75-0.471A1.256,1.256,0,0,0,162.286,90.277ZM159,78.885l-6.484,2.595L151.9,79.953l6.484-2.595-1-2.5,1.348-.539,2.608,6.519-1.348.54Zm-5.178-9.193a2.631,2.631,0,0,0,.095-0.965,1.976,1.976,0,0,0-.313-0.847,1.591,1.591,0,0,0-.66-0.632,0.706,0.706,0,0,0-.7.063,0.766,0.766,0,0,0-.359.486,1.838,1.838,0,0,0-.006.681q0.058,0.382.167,0.819t0.186,0.893a3.19,3.19,0,0,1,.025.909,2.094,2.094,0,0,1-.315.878,2.549,2.549,0,0,1-.819.78,2.249,2.249,0,0,1-2,.3,3.5,3.5,0,0,1-1.787-1.55,3.68,3.68,0,0,1-.475-3.329l1.492,0.329a2.725,2.725,0,0,0-.177,1.139,2.466,2.466,0,0,0,.418,1.157,1.811,1.811,0,0,0,.759.719,0.793,0.793,0,0,0,.79-0.056,0.894,0.894,0,0,0,.409-0.518,1.764,1.764,0,0,0,.037-0.7,6.6,6.6,0,0,0-.162-0.822q-0.112-.433-0.191-0.889a3.594,3.594,0,0,1-.041-0.9,2,2,0,0,1,.28-0.855,2.369,2.369,0,0,1,.789-0.76,2.245,2.245,0,0,1,1.3-.391,2.378,2.378,0,0,1,1.247.414,3.561,3.561,0,0,1,1.031,1.079,3.658,3.658,0,0,1,.567,1.489,3.323,3.323,0,0,1-.094,1.413Zm-5.274,61.83A4.344,4.344,0,0,1,153.5,136.8a4.545,4.545,0,0,1-.743,1.608,4.665,4.665,0,0,1-1.433,1.336,3.866,3.866,0,0,1-1.737.544l-0.257-1.54a2.634,2.634,0,0,0,1.216-.341,3,3,0,0,0,.978-0.9,2.812,2.812,0,0,0,.538-1.363,2.514,2.514,0,0,0-.24-1.358,2.978,2.978,0,0,0-.994-1.138,3.109,3.109,0,0,0-1.405-.583,2.542,2.542,0,0,0-1.359.18,2.572,2.572,0,0,0-1.084.9,2.9,2.9,0,0,0-.549,1.275,2,2,0,0,0,.2,1.205,2.538,2.538,0,0,0,.418.581l1.5-2.058,1.153,0.823-2.5,3.5-0.185-.132a5.326,5.326,0,0,1-1.742-1.908,3.606,3.606,0,0,1-.379-2.092,4.477,4.477,0,0,1,.843-2.06,4.332,4.332,0,0,1,1.248-1.181A4.219,4.219,0,0,1,148.547,131.521ZM137.711,59.952l3.176-3.918L137.2,57.309l-0.857-.7,0.482-3.853-3.164,3.9-1.268-1.028,5.313-6.554,0.9,0.726-0.714,5.787,5.5-1.9,0.895,0.726-5.314,6.554ZM131.3,46.819l-3.741-1.858-0.885,1.785,3.418,1.7-0.619,1.247-3.418-1.7-0.966,1.946,3.794,1.884-0.64,1.29-3.795-1.884h0l-1.461-.726,3.751-7.558,1.462,0.726h0l3.74,1.858ZM120.515,161.845l-1.591.459a4.731,4.731,0,0,1-1.753.181,4.19,4.19,0,0,1-1.582-.461,4.068,4.068,0,0,1-1.259-1.03,4.226,4.226,0,0,1-.783-1.523,4.272,4.272,0,0,1-.15-1.712,4.077,4.077,0,0,1,.509-1.546,4.122,4.122,0,0,1,1.087-1.232,4.664,4.664,0,0,1,1.568-.777l1.614-.466h0l0.456-.132,0.04-.012h0l1.072-.309,2.34,8.107-1.568.453h0Zm-1.937-6.712-1.568.453a2.871,2.871,0,0,0-1.277.724,2.415,2.415,0,0,0-.649,1.193,3.021,3.021,0,0,0,.081,1.514,2.9,2.9,0,0,0,.735,1.293,2.463,2.463,0,0,0,1.189.656,2.848,2.848,0,0,0,1.455-.064l1.568-.453Zm-3.015-112,4.166,1.048-0.055.221a5.332,5.332,0,0,1-1.14,2.319,3.611,3.611,0,0,1-1.809,1.117A4.477,4.477,0,0,1,114.5,47.8a4.318,4.318,0,0,1-1.555-.731,4.219,4.219,0,0,1-1.111-1.239,4.342,4.342,0,0,1,3.11-6.538,4.539,4.539,0,0,1,1.768.1,4.67,4.67,0,0,1,1.767.847,3.864,3.864,0,0,1,1.14,1.419l-1.34.8a2.639,2.639,0,0,0-.761-1.008,3.015,3.015,0,0,0-1.189-.584,2.812,2.812,0,0,0-1.466,0,2.515,2.515,0,0,0-1.177.719,3,3,0,0,0-.7,1.341,3.109,3.109,0,0,0-.029,1.521,2.532,2.532,0,0,0,.663,1.2,2.58,2.58,0,0,0,1.233.682,2.9,2.9,0,0,0,1.387.045,2.007,2.007,0,0,0,1.049-.627,2.519,2.519,0,0,0,.387-0.6l-2.462-.645Zm-9.541,113.094,1.623-.173,0.892,8.391-1.623.173ZM102.112,39l-0.072,1.991,3.813,0.139-0.05,1.391-3.814-.139-0.079,2.171,4.233,0.154-0.052,1.439-4.233-.154h0l-1.631-.059,0.307-8.432,1.2,0.044h0l4.6,0.168-0.052,1.439Zm-1.186,121.823a4.285,4.285,0,0,1-2.95,3.818,4.55,4.55,0,0,1-1.759.208,4.677,4.677,0,0,1-1.888-.524,3.864,3.864,0,0,1-1.372-1.2l1.179-1.025a2.644,2.644,0,0,0,.926.86,3.011,3.011,0,0,0,1.273.366,2.821,2.821,0,0,0,1.443-.254,2.511,2.511,0,0,0,1.033-.914,3,3,0,0,0,.45-1.443,3.1,3.1,0,0,0-.237-1.5,2.55,2.55,0,0,0-.864-1.066,2.577,2.577,0,0,0-1.334-.454,2.9,2.9,0,0,0-1.373.2,2,2,0,0,0-.922.8,2.511,2.511,0,0,0-.276.66l2.537,0.2-0.1,1.413-4.285-.3,0.016-.228a5.328,5.328,0,0,1,.716-2.482,3.606,3.606,0,0,1,1.585-1.417,4.47,4.47,0,0,1,2.2-.358,4.313,4.313,0,0,1,1.659.448,4.214,4.214,0,0,1,1.312,1.024A4.314,4.314,0,0,1,100.926,160.821ZM92.772,42.89l-3.608.615,0.611,3.585-1.609.274-1.418-8.318,1.609-.274,0.565,3.313,3.608-.615-0.565-3.313,1.609-.274L94.992,46.2l-1.609.274ZM86.032,163.136l-1.582-.4,2.073-8.179,1.582,0.4ZM79.7,50.215l-2.589-6.488-2.5,1-0.538-1.349,6.52-2.6,0.538,1.349-2.5,1,2.59,6.488ZM64.419,153.382l1.978-8.874,1.435,0.984-0.4,1.633,2.864,1.964,1.385-.957,1.406,0.964-7.571,5.039Zm4.673-3.461-2.005-1.375-0.811,3.319Zm-5.3-94.9-0.878,1.028-1.241-1.434-0.486,1.779-1.23-.521,0.936-1.577-1.805.082,0.122-1.335,1.761,0.408-0.652-1.721,1.314-.3L61.8,53.277l1.462-1.171,0.686,1.162-1.718.713Zm-4.567,82.525,2.693,2.771h0l1.138,1.171-6.049,5.882L55.87,146.2l5.008-4.869-2.693-2.772ZM51.53,69.28l-5.719-.152,1.046-1.567,3.823,0.156-1.611-3.471L50.1,62.7l2.282,5.174,3.05,2.036L54.52,71.276Zm-1.207,9.693-6.594,1.935L48.8,82.886,48.2,84.407l-7.859-3.068,0.415-1.062L47.39,78.33l-5.1-1.989,0.6-1.532,7.859,3.068ZM39.9,89.82a2.968,2.968,0,0,0-.394,1.129,2.822,2.822,0,0,0,.031,1.092,2.415,2.415,0,0,0,.439.925,2.578,2.578,0,0,0,.8.684A3.533,3.533,0,0,0,43.056,94a2.586,2.586,0,0,0,.968-0.408,2.482,2.482,0,0,0,.7-0.747,2.747,2.747,0,0,0,.366-1.03,3.115,3.115,0,0,0-.027-1.237,2.341,2.341,0,0,0-.473-0.942l1.26-.922a4.186,4.186,0,0,1,.691,1.492,4.7,4.7,0,0,1,.042,1.841A4.417,4.417,0,0,1,46,93.694a4.249,4.249,0,0,1-1.126,1.228,4.1,4.1,0,0,1-1.509.689A4.724,4.724,0,0,1,40,95.088a4.035,4.035,0,0,1-1.224-1.113,4.407,4.407,0,0,1-.7-1.506A4.339,4.339,0,0,1,38,90.715a4.468,4.468,0,0,1,.6-1.7,4.409,4.409,0,0,1,1.1-1.2l0.922,1.261A2.419,2.419,0,0,0,39.9,89.82Zm-1.26,11.142,0.185,4.173,1.99-.088-0.169-3.814,1.391-.061,0.169,3.813,2.17-.1-0.188-4.233,1.439-.064,0.207,4.665h0l0.053,1.2-8.428.374L37.391,105.2h0l-0.185-4.173Zm1.129,12.7,1.349,0.787a2.641,2.641,0,0,0-.516,1.154,3.016,3.016,0,0,0,.063,1.324,2.811,2.811,0,0,0,.7,1.285,2.5,2.5,0,0,0,1.2.684,2.992,2.992,0,0,0,1.51-.037,3.114,3.114,0,0,0,1.346-.708,2.543,2.543,0,0,0,.731-1.161,2.575,2.575,0,0,0,0-1.409,2.9,2.9,0,0,0-.629-1.237,2.01,2.01,0,0,0-1.055-.616,2.513,2.513,0,0,0-.713-0.049l0.624,2.468-1.369.361-1.093-4.156,0.22-.058a5.324,5.324,0,0,1,2.58-.12,3.608,3.608,0,0,1,1.851,1.045,4.476,4.476,0,0,1,1.044,1.966,4.314,4.314,0,0,1,.11,1.715,4.218,4.218,0,0,1-.548,1.571,4.311,4.311,0,0,1-2.663,2,4.283,4.283,0,0,1-4.563-1.567,4.532,4.532,0,0,1-.762-1.6,4.671,4.671,0,0,1-.111-1.956A3.878,3.878,0,0,1,39.774,113.666ZM50.7,124.3l-1.128,1.246,1.583,3.091,1.674-.181,0.777,1.517-9.057.823-0.607-1.186,5.966-6.859Zm-4.4,4.861,3.4-.367-1.108-2.165Zm29.017,28.775,2.794-6.4,1.507,0.658-2.794,6.4,2.463,1.076L78.7,161l-6.434-2.809,0.581-1.331Zm56.443-11.026a4.433,4.433,0,0,1,1.6-.707,4.271,4.271,0,0,1,1.666-.031,4.1,4.1,0,0,1,1.539.619,4.723,4.723,0,0,1,1.943,2.8,4.031,4.031,0,0,1,.037,1.654,4.405,4.405,0,0,1-.607,1.547,4.344,4.344,0,0,1-1.223,1.257,4.271,4.271,0,0,1-3.278.771l0.277-1.537a2.423,2.423,0,0,0,1.042.007,2.965,2.965,0,0,0,1.09-.493,2.83,2.83,0,0,0,.769-0.775,2.4,2.4,0,0,0,.367-0.956,2.572,2.572,0,0,0-.059-1.054,3.548,3.548,0,0,0-1.31-1.889,2.592,2.592,0,0,0-.963-0.42,2.486,2.486,0,0,0-1.027,0,2.756,2.756,0,0,0-1,.445,3.123,3.123,0,0,0-.878.872,2.353,2.353,0,0,0-.356.992l-1.536-.278a4.2,4.2,0,0,1,.6-1.529A4.71,4.71,0,0,1,131.752,146.906Zm14.223-.7-1.168,1.141-5.893-6.038,1.167-1.14Zm7.393-23.474-1.686,3.887-1.321-.574,1.686-3.887h0l0.649-1.5,7.74,3.358-0.65,1.5h0l-1.662,3.832-1.321-.574,1.662-3.832-1.827-.793-1.519,3.5-1.277-.554,1.519-3.5Zm1.373-9.071,0.344-1.608,6.829,1.465,0.564-2.629,1.419,0.3-1.472,6.866-1.419-.3,0.563-2.629Zm1.333-8.847,1.585-.558,0.078-3.472-1.558-.638,0.038-1.7,8.358,3.586-0.03,1.332-8.511,3.194Zm6.186-2.18-3.167-1.3-0.055,2.432Z"/>
</svg>
